<svg width="24" height="24" viewBox="0 0 24 24" fill="none" xmlns="http://www.w3.org/2000/svg">
<g clip-path="url(#clip0_116_695)">
<path d="M12.237 0.855996C6.19899 0.615996 1.10999 5.316 0.870985 11.354C0.630985 17.392 5.33199 22.48 11.369 22.72C17.407 22.96 22.495 18.26 22.735 12.222C22.974 6.184 18.274 1.095 12.237 0.855996ZM16.855 16.884C16.719 17.124 16.454 17.244 16.196 17.208C16.117 17.197 16.038 17.171 15.964 17.129C14.518 16.306 12.942 15.77 11.28 15.536C9.61799 15.302 7.95499 15.383 6.33799 15.776C5.98699 15.861 5.63399 15.646 5.54899 15.295C5.46399 14.944 5.67899 14.591 6.02999 14.506C7.80799 14.074 9.63599 13.985 11.462 14.242C13.288 14.499 15.02 15.088 16.611 15.993C16.924 16.172 17.034 16.57 16.856 16.884H16.855ZM18.293 14.012C18.07 14.424 17.554 14.578 17.142 14.355C15.45 13.44 13.618 12.839 11.697 12.569C9.77599 12.299 7.84999 12.372 5.97099 12.785C5.86899 12.807 5.76799 12.811 5.66999 12.797C5.32899 12.749 5.03699 12.495 4.95899 12.138C4.85799 11.68 5.14799 11.227 5.60599 11.126C7.68299 10.669 9.81198 10.588 11.934 10.886C14.055 11.184 16.08 11.848 17.95 12.86C18.363 13.083 18.516 13.598 18.293 14.011V14.012ZM19.887 10.774C19.677 11.178 19.24 11.387 18.814 11.327C18.699 11.311 18.586 11.275 18.477 11.219C16.507 10.194 14.385 9.517 12.17 9.206C9.95499 8.895 7.72799 8.961 5.55199 9.403C4.98599 9.518 4.43499 9.152 4.31999 8.587C4.20499 8.021 4.57099 7.47 5.13599 7.355C7.54599 6.866 10.01 6.793 12.461 7.137C14.912 7.481 17.26 8.231 19.442 9.366C19.954 9.632 20.153 10.263 19.887 10.775V10.774Z" fill="#0BB06C"/>
</g>
<defs>
<clipPath id="clip0_116_695">
<rect width="23.605" height="22.525" fill="white" transform="translate(0 0.524994)"/>
</clipPath>
</defs>
</svg>
