<svg width="25" height="23" viewBox="0 0 25 23" fill="none" xmlns="http://www.w3.org/2000/svg">
<g clip-path="url(#clip0_116_701)">
<path d="M13.052 0.331002C7.01401 0.0910018 1.92501 4.791 1.68601 10.829C1.44601 16.867 6.14701 21.955 12.184 22.195C18.222 22.435 23.31 17.735 23.55 11.697C23.789 5.659 19.089 0.570002 13.052 0.331002ZM17.67 16.359C17.534 16.599 17.269 16.719 17.011 16.683C16.932 16.672 16.853 16.646 16.779 16.604C15.333 15.781 13.757 15.245 12.095 15.011C10.433 14.777 8.77001 14.858 7.15301 15.251C6.80201 15.336 6.44901 15.121 6.36401 14.77C6.27901 14.419 6.49401 14.066 6.84501 13.981C8.62301 13.549 10.451 13.46 12.277 13.717C14.103 13.974 15.835 14.563 17.426 15.468C17.739 15.647 17.849 16.045 17.671 16.359H17.67ZM19.108 13.487C18.885 13.899 18.369 14.053 17.957 13.83C16.265 12.915 14.433 12.314 12.512 12.044C10.591 11.774 8.66501 11.847 6.78601 12.26C6.68401 12.282 6.58301 12.286 6.48501 12.272C6.14401 12.224 5.85201 11.97 5.77401 11.613C5.67301 11.155 5.96301 10.702 6.42101 10.601C8.49801 10.144 10.627 10.063 12.749 10.361C14.87 10.659 16.895 11.323 18.765 12.335C19.178 12.558 19.331 13.073 19.108 13.486V13.487ZM20.702 10.249C20.492 10.653 20.055 10.862 19.629 10.802C19.514 10.786 19.401 10.75 19.292 10.694C17.322 9.669 15.2 8.992 12.985 8.681C10.77 8.37 8.54301 8.436 6.36701 8.878C5.80101 8.993 5.25001 8.627 5.13501 8.062C5.02001 7.496 5.38601 6.945 5.95101 6.83C8.36101 6.341 10.825 6.268 13.276 6.612C15.727 6.956 18.075 7.706 20.257 8.841C20.769 9.107 20.968 9.738 20.702 10.25V10.249Z" fill="black"/>
</g>
<defs>
<clipPath id="clip0_116_701">
<rect width="23.605" height="22.525" fill="white" transform="translate(0.815002)"/>
</clipPath>
</defs>
</svg>
