<svg width="24" height="23" viewBox="0 0 24 23" fill="none" xmlns="http://www.w3.org/2000/svg">
<g clip-path="url(#clip0_116_687)">
<path d="M12.447 0.331002C6.40899 0.0910018 1.31999 4.791 1.08099 10.829C0.840989 16.867 5.54199 21.955 11.579 22.195C17.617 22.435 22.705 17.735 22.945 11.697C23.184 5.659 18.484 0.570002 12.447 0.331002ZM17.065 16.359C16.929 16.599 16.664 16.719 16.406 16.683C16.327 16.672 16.248 16.646 16.174 16.604C14.728 15.781 13.152 15.245 11.49 15.011C9.82799 14.777 8.16499 14.858 6.54799 15.251C6.19699 15.336 5.84399 15.121 5.75899 14.77C5.67399 14.419 5.88899 14.066 6.23999 13.981C8.01799 13.549 9.84599 13.46 11.672 13.717C13.498 13.974 15.23 14.563 16.821 15.468C17.134 15.647 17.244 16.045 17.066 16.359H17.065ZM18.503 13.487C18.28 13.899 17.764 14.053 17.352 13.83C15.66 12.915 13.828 12.314 11.907 12.044C9.98599 11.774 8.05999 11.847 6.18099 12.26C6.07899 12.282 5.97799 12.286 5.87999 12.272C5.53899 12.224 5.24699 11.97 5.16899 11.613C5.06799 11.155 5.35799 10.702 5.81599 10.601C7.89299 10.144 10.022 10.063 12.144 10.361C14.265 10.659 16.29 11.323 18.16 12.335C18.573 12.558 18.726 13.073 18.503 13.486V13.487ZM20.097 10.249C19.887 10.653 19.45 10.862 19.024 10.802C18.909 10.786 18.796 10.75 18.687 10.694C16.717 9.669 14.595 8.992 12.38 8.681C10.165 8.37 7.93799 8.436 5.76199 8.878C5.19599 8.993 4.64499 8.627 4.52999 8.062C4.41499 7.496 4.78099 6.945 5.34599 6.83C7.75599 6.341 10.22 6.268 12.671 6.612C15.122 6.956 17.47 7.706 19.652 8.841C20.164 9.107 20.363 9.738 20.097 10.25V10.249Z" fill="#615D59"/>
</g>
<defs>
<clipPath id="clip0_116_687">
<rect width="23.605" height="22.525" fill="white" transform="translate(0.209999)"/>
</clipPath>
</defs>
</svg>
