<svg width="24" height="24" viewBox="0 0 24 24" fill="none" xmlns="http://www.w3.org/2000/svg">
<path d="M4.62 18.12C5.64 17.34 6.78 16.7252 8.04 16.2756C9.3 15.826 10.62 15.6008 12 15.6C13.38 15.5992 14.7 15.8244 15.96 16.2756C17.22 16.7268 18.36 17.3416 19.38 18.12C20.08 17.3 20.6252 16.37 21.0156 15.33C21.406 14.29 21.6008 13.18 21.6 12C21.6 9.34 20.6652 7.0748 18.7956 5.2044C16.926 3.334 14.6608 2.3992 12 2.4C9.3392 2.4008 7.074 3.336 5.2044 5.2056C3.3348 7.0752 2.4 9.34 2.4 12C2.4 13.18 2.5952 14.29 2.9856 15.33C3.376 16.37 3.9208 17.3 4.62 18.12ZM12 13.2C10.82 13.2 9.8248 12.7952 9.0144 11.9856C8.204 11.176 7.7992 10.1808 7.8 9C7.8008 7.8192 8.206 6.824 9.0156 6.0144C9.82519 5.2048 10.82 4.8 12 4.8C13.18 4.8 14.1752 5.2052 14.9856 6.0156C15.796 6.826 16.2008 7.8208 16.2 9C16.1992 10.1792 15.7944 11.1744 14.9856 11.9856C14.1768 12.7968 13.1816 13.2016 12 13.2ZM12 24C10.34 24 8.78 23.6848 7.32 23.0544C5.86 22.424 4.59 21.5692 3.51 20.49C2.43 19.4108 1.5752 18.1408 0.945601 16.68C0.316001 15.2192 0.000801518 13.6592 1.51899e-06 12C-0.00079848 10.3408 0.314401 8.7808 0.945601 7.32C1.5768 5.8592 2.4316 4.5892 3.51 3.51C4.5884 2.4308 5.8584 1.576 7.32 0.9456C8.7816 0.3152 10.3416 0 12 0C13.6584 0 15.2184 0.3152 16.68 0.9456C18.1416 1.576 19.4116 2.4308 20.49 3.51C21.5684 4.5892 22.4236 5.8592 23.0556 7.32C23.6876 8.7808 24.0024 10.3408 24 12C23.9976 13.6592 23.6824 15.2192 23.0544 16.68C22.4264 18.1408 21.5716 19.4108 20.49 20.49C19.4084 21.5692 18.1384 22.4244 16.68 23.0556C15.2216 23.6868 13.6616 24.0016 12 24ZM12 21.6C13.06 21.6 14.06 21.4452 15 21.1356C15.94 20.826 16.8 20.3808 17.58 19.8C16.8 19.22 15.94 18.7752 15 18.4656C14.06 18.156 13.06 18.0008 12 18C10.94 17.9992 9.94 18.1544 9 18.4656C8.06 18.7768 7.2 19.2216 6.42 19.8C7.2 20.38 8.06 20.8252 9 21.1356C9.94 21.446 10.94 21.6008 12 21.6ZM12 10.8C12.52 10.8 12.95 10.63 13.29 10.29C13.63 9.95 13.8 9.52 13.8 9C13.8 8.48 13.63 8.05 13.29 7.71C12.95 7.37 12.52 7.2 12 7.2C11.48 7.2 11.05 7.37 10.71 7.71C10.37 8.05 10.2 8.48 10.2 9C10.2 9.52 10.37 9.95 10.71 10.29C11.05 10.63 11.48 10.8 12 10.8Z" fill="white"/>
</svg>
