<svg width="24" height="24" viewBox="0 0 24 24" fill="none" xmlns="http://www.w3.org/2000/svg">
<path d="M10.2857 13.7143H1.71429C1.22858 13.7143 0.82172 13.5497 0.49372 13.2206C0.16572 12.8914 0.00114877 12.4846 5.91132e-06 12C-0.00113695 11.5154 0.163435 11.1086 0.49372 10.7794C0.824006 10.4503 1.23086 10.2857 1.71429 10.2857H10.2857V1.71429C10.2857 1.22858 10.4503 0.82172 10.7794 0.49372C11.1086 0.16572 11.5154 0.00114877 12 5.91132e-06C12.4846 -0.00113695 12.892 0.163435 13.2223 0.49372C13.5526 0.824006 13.7166 1.23086 13.7143 1.71429V10.2857H22.2857C22.7714 10.2857 23.1789 10.4503 23.508 10.7794C23.8371 11.1086 24.0011 11.5154 24 12C23.9989 12.4846 23.8343 12.892 23.5063 13.2223C23.1783 13.5526 22.7714 13.7166 22.2857 13.7143H13.7143V22.2857C13.7143 22.7714 13.5497 23.1789 13.2206 23.508C12.8914 23.8371 12.4846 24.0011 12 24C11.5154 23.9989 11.1086 23.8343 10.7794 23.5063C10.4503 23.1783 10.2857 22.7714 10.2857 22.2857V13.7143Z" fill="white"/>
</svg>
