<svg width="26" height="26" viewBox="0 0 26 26" fill="none" xmlns="http://www.w3.org/2000/svg">
<path d="M25 4.42857H21.5714V1H19.8571V4.42857H16.4286V6.14286H19.8571V9.57143H21.5714V6.14286H25V4.42857ZM19.8571 12.1429V18.6194C19.3383 18.311 18.7465 18.1465 18.1429 18.1429C17.4648 18.1429 16.8019 18.3439 16.238 18.7207C15.6742 19.0974 15.2348 19.6329 14.9753 20.2594C14.7158 20.8859 14.6479 21.5752 14.7802 22.2403C14.9125 22.9054 15.239 23.5163 15.7185 23.9958C16.198 24.4753 16.8089 24.8018 17.474 24.9341C18.1391 25.0664 18.8284 24.9985 19.4549 24.739C20.0814 24.4795 20.6169 24.0401 20.9936 23.4762C21.3703 22.9124 21.5714 22.2495 21.5714 21.5714V12.1429H19.8571ZM18.1429 23.2857C17.8038 23.2857 17.4724 23.1852 17.1905 22.9968C16.9085 22.8084 16.6888 22.5407 16.5591 22.2275C16.4293 21.9142 16.3954 21.5695 16.4615 21.237C16.5277 20.9044 16.6909 20.599 16.9307 20.3592C17.1704 20.1195 17.4759 19.9562 17.8084 19.8901C18.141 19.8239 18.4856 19.8579 18.7989 19.9876C19.1121 20.1174 19.3799 20.3371 19.5682 20.619C19.7566 20.9009 19.8571 21.2324 19.8571 21.5714C19.8565 22.0259 19.6756 22.4615 19.3543 22.7829C19.0329 23.1042 18.5973 23.285 18.1429 23.2857ZM13.8571 4.42857H7.85714C7.40249 4.42857 6.96645 4.60918 6.64496 4.93067C6.32347 5.25216 6.14286 5.6882 6.14286 6.14286V18.6194C5.62397 18.311 5.03221 18.1465 4.42857 18.1429C3.75047 18.1429 3.08759 18.3439 2.52376 18.7207C1.95993 19.0974 1.52049 19.6329 1.26099 20.2594C1.00149 20.8859 0.933588 21.5752 1.06588 22.2403C1.19817 22.9054 1.52471 23.5163 2.00421 23.9958C2.4837 24.4753 3.09461 24.8018 3.75969 24.9341C4.42477 25.0664 5.11414 24.9985 5.74063 24.739C6.36712 24.4795 6.90259 24.0401 7.27933 23.4762C7.65606 22.9124 7.85714 22.2495 7.85714 21.5714V6.14286H13.8571V4.42857ZM4.42857 23.2857C4.08952 23.2857 3.75808 23.1852 3.47617 22.9968C3.19425 22.8084 2.97453 22.5407 2.84478 22.2275C2.71503 21.9142 2.68108 21.5695 2.74723 21.237C2.81337 20.9044 2.97664 20.599 3.21639 20.3592C3.45614 20.1195 3.76159 19.9562 4.09413 19.8901C4.42667 19.8239 4.77136 19.8579 5.0846 19.9876C5.39785 20.1174 5.66558 20.3371 5.85395 20.619C6.04232 20.9009 6.14286 21.2324 6.14286 21.5714C6.14286 22.0261 5.96225 22.4621 5.64076 22.7836C5.31927 23.1051 4.88323 23.2857 4.42857 23.2857Z" fill="#1BD660" stroke="#1BD660" stroke-width="0.5"/>
</svg>
