<svg width="26" height="26" viewBox="0 0 26 26" fill="none" xmlns="http://www.w3.org/2000/svg">
<path d="M7.66669 9.66667C7.66669 11.9652 8.57978 14.1696 10.2051 15.7949C11.8304 17.4202 14.0348 18.3333 16.3334 18.3333C18.6319 18.3333 20.8363 17.4202 22.4616 15.7949C24.0869 14.1696 25 11.9652 25 9.66667C25 7.36812 24.0869 5.16372 22.4616 3.53841C20.8363 1.91309 18.6319 1 16.3334 1C14.0348 1 11.8304 1.91309 10.2051 3.53841C8.57978 5.16372 7.66669 7.36812 7.66669 9.66667Z" stroke="white" stroke-width="2" stroke-linecap="round" stroke-linejoin="round"/>
<path d="M1 16.3334C1 18.6319 1.91309 20.8363 3.53841 22.4616C5.16372 24.0869 7.36812 25 9.66667 25C11.9652 25 14.1696 24.0869 15.7949 22.4616C17.4202 20.8363 18.3333 18.6319 18.3333 16.3334C18.3333 14.0348 17.4202 11.8304 15.7949 10.2051C14.1696 8.57978 11.9652 7.66669 9.66667 7.66669C7.36812 7.66669 5.16372 8.57978 3.53841 10.2051C1.91309 11.8304 1 14.0348 1 16.3334Z" stroke="white" stroke-width="2" stroke-linecap="round" stroke-linejoin="round"/>
</svg>
