<svg width="24" height="24" viewBox="0 0 24 24" fill="none" xmlns="http://www.w3.org/2000/svg">
<path d="M0 15.3334C0 17.6319 0.913092 19.8363 2.53841 21.4616C4.16372 23.0869 6.36812 24 8.66667 24C10.9652 24 13.1696 23.0869 14.7949 21.4616C16.4202 19.8363 17.3333 17.6319 17.3333 15.3334C17.3333 13.0348 16.4202 10.8304 14.7949 9.20509C13.1696 7.57978 10.9652 6.66669 8.66667 6.66669C6.36812 6.66669 4.16372 7.57978 2.53841 9.20509C0.913092 10.8304 0 13.0348 0 15.3334Z" fill="#1BD660"/>
<path d="M6.66669 8.66667C6.66669 10.9652 7.57978 13.1696 9.20509 14.7949C10.8304 16.4202 13.0348 17.3333 15.3334 17.3333C17.6319 17.3333 19.8363 16.4202 21.4616 14.7949C23.0869 13.1696 24 10.9652 24 8.66667C24 6.36812 23.0869 4.16372 21.4616 2.53841C19.8363 0.913092 17.6319 0 15.3334 0C13.0348 0 10.8304 0.913092 9.20509 2.53841C7.57978 4.16372 6.66669 6.36812 6.66669 8.66667Z" fill="#30FF7D" fill-opacity="0.59"/>
</svg>
