<svg width="24" height="24" viewBox="0 0 24 24" fill="none" xmlns="http://www.w3.org/2000/svg">
<path d="M10 14C10 14.5304 10.2107 15.0391 10.5858 15.4142C10.9609 15.7893 11.4696 16 12 16C12.5304 16 13.0391 15.7893 13.4142 15.4142C13.7893 15.0391 14 14.5304 14 14C14 13.4696 13.7893 12.9609 13.4142 12.5858C13.0391 12.2107 12.5304 12 12 12C11.4696 12 10.9609 12.2107 10.5858 12.5858C10.2107 12.9609 10 13.4696 10 14Z" stroke="white" stroke-width="2" stroke-linecap="round" stroke-linejoin="round"/>
<path d="M17 10L15 4M6.99997 10L8.99997 4M5.00097 8H19C19.2883 7.99997 19.5733 8.06229 19.8353 8.1827C20.0974 8.30311 20.3302 8.47876 20.518 8.6976C20.7058 8.91645 20.844 9.17331 20.9233 9.45059C21.0025 9.72786 21.0208 10.019 20.977 10.304L19.722 17.456C19.613 18.1644 19.254 18.8105 18.71 19.2771C18.1659 19.7438 17.4727 20.0002 16.756 20H7.24397C6.52737 20 5.83445 19.7434 5.2906 19.2768C4.74675 18.8102 4.38789 18.1643 4.27897 17.456L3.02397 10.304C2.98014 10.019 2.99846 9.72786 3.07768 9.45059C3.15689 9.17331 3.29513 8.91645 3.48292 8.6976C3.6707 8.47876 3.90359 8.30311 4.16561 8.1827C4.42764 8.06229 4.7126 7.99997 5.00097 8Z" stroke="white" stroke-width="2" stroke-linecap="round" stroke-linejoin="round"/>
</svg>
