<svg width="26" height="26" viewBox="0 0 26 26" fill="none" xmlns="http://www.w3.org/2000/svg">
<path d="M10.3326 16.3337C10.3326 17.041 10.6136 17.7193 11.1137 18.2194C11.6138 18.7195 12.2921 19.0004 12.9994 19.0004C13.7067 19.0004 14.3849 18.7195 14.8851 18.2194C15.3852 17.7193 15.6661 17.041 15.6661 16.3337C15.6661 15.6264 15.3852 14.9481 14.8851 14.448C14.3849 13.9479 13.7067 13.667 12.9994 13.667C12.2921 13.667 11.6138 13.9479 11.1137 14.448C10.6136 14.9481 10.3326 15.6264 10.3326 16.3337Z" stroke="white" stroke-width="2" stroke-linecap="round" stroke-linejoin="round"/>
<path d="M19.6662 11.0002L16.9994 3M6.33247 11.0002L8.99922 3M3.66706 8.33349H22.3329C22.7174 8.33344 23.0974 8.41654 23.4468 8.5771C23.7962 8.73765 24.1067 8.97185 24.3571 9.26365C24.6075 9.55545 24.7918 9.89795 24.8974 10.2677C25.003 10.6374 25.0275 11.0255 24.969 11.4056L23.2956 20.9419C23.1504 21.8865 22.6717 22.7479 21.9462 23.3701C21.2208 23.9923 20.2966 24.3342 19.3409 24.334H6.65782C5.70232 24.3339 4.7784 23.9918 4.05325 23.3696C3.32809 22.7475 2.8496 21.8862 2.70437 20.9419L1.03099 11.4056C0.972542 11.0255 0.99697 10.6374 1.1026 10.2677C1.20822 9.89795 1.39255 9.55545 1.64293 9.26365C1.89332 8.97185 2.20384 8.73765 2.55322 8.5771C2.9026 8.41654 3.28256 8.33344 3.66706 8.33349Z" stroke="white" stroke-width="2" stroke-linecap="round" stroke-linejoin="round"/>
</svg>
