<svg width="26" height="26" viewBox="0 0 26 26" fill="none" xmlns="http://www.w3.org/2000/svg">
<path d="M9 1.66669V24.3334M19.6667 17L15.6667 13L19.6667 9.66669" stroke="white" stroke-width="1.5" stroke-linecap="round" stroke-linejoin="round"/>
<path d="M1 9.53333C1 6.54667 1 5.05333 1.58133 3.912C2.09265 2.90851 2.90851 2.09265 3.912 1.58133C5.05333 1 6.54667 1 9.53333 1H16.4667C19.4533 1 20.9467 1 22.088 1.58133C23.0915 2.09265 23.9073 2.90851 24.4187 3.912C25 5.05333 25 6.54667 25 9.53333V16.4667C25 19.4533 25 20.9467 24.4187 22.088C23.9073 23.0915 23.0915 23.9073 22.088 24.4187C20.9467 25 19.4533 25 16.4667 25H9.53333C6.54667 25 5.05333 25 3.912 24.4187C2.90851 23.9073 2.09265 23.0915 1.58133 22.088C1 20.9467 1 19.4533 1 16.4667V9.53333Z" stroke="white" stroke-width="1.5" stroke-linecap="round" stroke-linejoin="round"/>
</svg>
