<svg width="24" height="24" viewBox="0 0 24 24" fill="none" xmlns="http://www.w3.org/2000/svg">
<path d="M11.9706 14.3949L5.90965 20.4558C5.5662 20.7993 5.16214 20.9706 4.69747 20.9698C4.2328 20.969 3.82874 20.7977 3.48529 20.4558C3.14183 20.114 2.97051 19.7099 2.97132 19.2436C2.97213 18.7774 3.14345 18.3733 3.48529 18.0315L9.5462 11.9706L3.48529 5.90964C3.14183 5.56619 2.97051 5.16213 2.97132 4.69746C2.97213 4.23279 3.14345 3.82873 3.48529 3.48527C3.82712 3.14182 4.23159 2.9701 4.69868 2.9701C5.16577 2.9701 5.56943 3.14182 5.90965 3.48527L11.9706 9.54619L18.0315 3.48527C18.3749 3.14182 18.7794 2.9701 19.2449 2.9701C19.7103 2.9701 20.114 3.14182 20.4558 3.48527C20.7977 3.82872 20.9694 4.23319 20.971 4.69867C20.9726 5.16415 20.8009 5.5678 20.4558 5.90964L14.3949 11.9706L20.4558 18.0315C20.7993 18.3749 20.971 18.7794 20.971 19.2449C20.971 19.7103 20.7993 20.114 20.4558 20.4558C20.1124 20.7977 19.7083 20.969 19.2437 20.9698C18.779 20.9706 18.3749 20.7993 18.0315 20.4558L11.9706 14.3949Z" fill="white"/>
</svg>
