<svg width="16" height="16" viewBox="0 0 16 16" fill="none" xmlns="http://www.w3.org/2000/svg">
<g clip-path="url(#clip0_168_51)">
<mask id="mask0_168_51" style="mask-type:luminance" maskUnits="userSpaceOnUse" x="0" y="0" width="16" height="16">
<path d="M0 0H16V16H0V0Z" fill="white"/>
</mask>
<g mask="url(#mask0_168_51)">
<path d="M0.635742 10.3672C0.577919 10.1771 0.538727 9.9809 0.519531 9.78125C0.538796 9.98301 0.578347 10.179 0.635742 10.3672ZM0.635742 10.3672C0.652954 10.4236 0.674908 10.4782 0.695312 10.5332C0.674921 10.4781 0.652873 10.4235 0.635742 10.3672ZM3.50586 12.4941C3.409 12.4941 3.31329 12.4885 3.21875 12.4795C3.3138 12.4886 3.40956 12.4941 3.50586 12.4941ZM3.2041 12.4785C3.1089 12.469 3.01525 12.4538 2.92285 12.4355C3.01569 12.454 3.1094 12.4689 3.2041 12.4785ZM2.91602 12.4346C2.86282 12.4239 2.81094 12.409 2.75879 12.3955C2.81107 12.409 2.86297 12.4239 2.91602 12.4346ZM2.62305 12.3604C2.58259 12.3479 2.54362 12.3315 2.50391 12.3174C2.5437 12.3315 2.58266 12.3479 2.62305 12.3604ZM2.34863 12.2607C2.31595 12.247 2.28501 12.2297 2.25293 12.2148C2.28508 12.2297 2.31598 12.2471 2.34863 12.2607ZM0.775391 10.7285C0.763484 10.7023 0.749448 10.677 0.738281 10.6504C0.749397 10.677 0.763512 10.7022 0.775391 10.7285ZM0.530273 5.84375C0.530093 5.84686 0.530451 5.85039 0.530273 5.85352C0.507441 6.25568 0.505859 6.77902 0.505859 7.49414V7.37402C0.505357 6.73112 0.506546 6.2404 0.530273 5.84375ZM0.553711 5.55566C0.557873 5.51557 0.563451 5.47663 0.568359 5.43848C0.563468 5.47678 0.557792 5.5157 0.553711 5.55566Z" fill="white" stroke="white"/>
</g>
</g>
<defs>
<clipPath id="clip0_168_51">
<rect width="16" height="16" fill="white"/>
</clipPath>
</defs>
</svg>
