<svg width="24" height="24" viewBox="0 0 24 24" fill="none" xmlns="http://www.w3.org/2000/svg">
<g clip-path="url(#clip0_170_138)">
<mask id="mask0_170_138" style="mask-type:luminance" maskUnits="userSpaceOnUse" x="0" y="0" width="24" height="24">
<path d="M0 0H24V24H0V0Z" fill="white"/>
</mask>
<g mask="url(#mask0_170_138)">
<path d="M8.03809 3.50488H15.9365C17.8913 3.50336 18.9566 3.50987 19.8203 3.8125C20.5985 4.08554 21.3055 4.53016 21.8887 5.11328C22.4716 5.69629 22.9164 6.40273 23.1895 7.18066C23.4907 8.04156 23.4971 9.11005 23.4971 11.0654V11.417C23.4986 13.3716 23.492 14.4371 23.1895 15.3008C22.9164 16.0789 22.4718 16.786 21.8887 17.3691C21.3055 17.9523 20.5985 18.3969 19.8203 18.6699C18.9595 18.9711 17.8907 18.9775 15.9355 18.9775H10.3643L14.4365 23.0498L14.4668 23.0879C14.493 23.1286 14.5072 23.1765 14.5068 23.2256C14.5063 23.2911 14.4799 23.354 14.4336 23.4004C14.3873 23.4467 14.3243 23.473 14.2588 23.4736C14.2097 23.4741 14.1618 23.4598 14.1211 23.4336L14.083 23.4033L9.58887 18.9092C9.54217 18.8623 9.51562 18.7986 9.51562 18.7324C9.51571 18.6662 9.54208 18.6025 9.58887 18.5557L14.082 14.0615L14.083 14.0625C14.1302 14.017 14.1932 13.9916 14.2588 13.9922C14.3243 13.9928 14.3873 14.0191 14.4336 14.0654C14.4798 14.1118 14.5063 14.1748 14.5068 14.2402C14.5073 14.3027 14.484 14.3629 14.4424 14.4092L11.2178 17.6348L10.3643 18.4883H15.7559C16.831 18.4883 17.6077 18.4859 18.2021 18.4521C18.7256 18.4224 19.1333 18.3669 19.501 18.2578L19.6562 18.208C20.3648 17.9599 21.0082 17.5552 21.5391 17.0244C22.0699 16.4936 22.4745 15.8501 22.7227 15.1416C22.8656 14.7333 22.9328 14.2863 22.9668 13.6885C23.0006 13.0938 23.0029 12.3165 23.0029 11.2412C23.0029 10.1662 23.0006 9.38939 22.9668 8.79492C22.9328 8.19701 22.8655 7.74975 22.7227 7.34082C22.2534 5.99487 21.2309 4.91964 19.9219 4.37598L19.6562 4.27441L19.501 4.22363C19.1337 4.11462 18.7263 4.06 18.2031 4.03027C17.6084 3.99648 16.8312 3.99414 15.7559 3.99414H8.25586C7.18066 3.99414 6.40406 3.99649 5.80957 4.03027C5.21173 4.06425 4.76534 4.13163 4.35645 4.27441H4.35547C3.64699 4.52255 3.00346 4.9272 2.47266 5.45801C2.00824 5.92247 1.64053 6.47308 1.38965 7.07812L1.28906 7.34082C1.14612 7.74924 1.0789 8.19595 1.04492 8.79395C1.01114 9.38865 1.00879 10.1659 1.00879 11.2412V14.2412C1.00884 15.3683 1.45693 16.4491 2.25391 17.2461C3.05089 18.0431 4.13169 18.4912 5.25879 18.4912C5.32509 18.4912 5.38866 18.5176 5.43555 18.5645C5.48242 18.6113 5.50879 18.6749 5.50879 18.7412C5.50873 18.8074 5.48238 18.8711 5.43555 18.918C5.38868 18.9647 5.325 18.9912 5.25879 18.9912C2.64008 18.9911 0.508903 16.8599 0.508789 14.2412V11.0605C0.507262 9.10594 0.513864 8.0404 0.816406 7.17676C1.08943 6.39865 1.53411 5.6915 2.11719 5.1084C2.70031 4.52528 3.4074 4.08066 4.18555 3.80762C5.03853 3.5092 6.09529 3.50014 8.0166 3.5L8.03809 3.50488Z" fill="white" stroke="white"/>
</g>
</g>
<defs>
<clipPath id="clip0_170_138">
<rect width="24" height="24" fill="white"/>
</clipPath>
</defs>
</svg>
