<svg width="24" height="24" viewBox="0 0 24 24" fill="none" xmlns="http://www.w3.org/2000/svg">
<path d="M17 2C16.7348 2 16.4804 2.10536 16.2929 2.29289C16.1054 2.48043 16 2.73478 16 3C16 3.26522 16.1054 3.51957 16.2929 3.70711C16.4804 3.89464 16.7348 4 17 4H18.586L14.293 8.293C14.1108 8.4816 14.01 8.7342 14.0123 8.9964C14.0146 9.2586 14.1198 9.50941 14.3052 9.69482C14.4906 9.88023 14.7414 9.9854 15.0036 9.98767C15.2658 9.98995 15.5184 9.88916 15.707 9.707L20 5.414V7C20 7.26522 20.1054 7.51957 20.2929 7.70711C20.4804 7.89464 20.7348 8 21 8C21.2652 8 21.5196 7.89464 21.7071 7.70711C21.8946 7.51957 22 7.26522 22 7V3C22 2.73478 21.8946 2.48043 21.7071 2.29289C21.5196 2.10536 21.2652 2 21 2H17ZM4 18.586V17C4 16.7348 3.89464 16.4804 3.70711 16.2929C3.51957 16.1054 3.26522 16 3 16C2.73478 16 2.48043 16.1054 2.29289 16.2929C2.10536 16.4804 2 16.7348 2 17V21C2 21.2652 2.10536 21.5196 2.29289 21.7071C2.48043 21.8946 2.73478 22 3 22H7C7.26522 22 7.51957 21.8946 7.70711 21.7071C7.89464 21.5196 8 21.2652 8 21C8 20.7348 7.89464 20.4804 7.70711 20.2929C7.51957 20.1054 7.26522 20 7 20H5.414L9.707 15.707C9.88916 15.5184 9.98995 15.2658 9.98767 15.0036C9.9854 14.7414 9.88023 14.4906 9.69482 14.3052C9.50941 14.1198 9.2586 14.0146 8.9964 14.0123C8.7342 14.01 8.4816 14.1108 8.293 14.293L4 18.586Z" fill="white"/>
</svg>
