<svg width="24" height="24" viewBox="0 0 24 24" fill="none" xmlns="http://www.w3.org/2000/svg">
<path d="M18 0C17.6817 0 17.3765 0.126428 17.1515 0.351472C16.9264 0.576515 16.8 0.88174 16.8 1.2C16.8 1.51826 16.9264 1.82348 17.1515 2.04853C17.3765 2.27357 17.6817 2.4 18 2.4H19.9032L14.7516 7.5516C14.533 7.77792 14.4121 8.08105 14.4148 8.39568C14.4175 8.71032 14.5437 9.01129 14.7662 9.23378C14.9887 9.45627 15.2897 9.58247 15.6043 9.58521C15.919 9.58794 16.2221 9.46699 16.4484 9.2484L21.6 4.0968V6C21.6 6.31826 21.7264 6.62348 21.9515 6.84853C22.1765 7.07357 22.4817 7.2 22.8 7.2C23.1183 7.2 23.4235 7.07357 23.6485 6.84853C23.8736 6.62348 24 6.31826 24 6V1.2C24 0.88174 23.8736 0.576515 23.6485 0.351472C23.4235 0.126428 23.1183 0 22.8 0H18ZM2.4 19.9032V18C2.4 17.6817 2.27357 17.3765 2.04853 17.1515C1.82348 16.9264 1.51826 16.8 1.2 16.8C0.88174 16.8 0.576515 16.9264 0.351472 17.1515C0.126428 17.3765 0 17.6817 0 18V22.8C0 23.1183 0.126428 23.4235 0.351472 23.6485C0.576515 23.8736 0.88174 24 1.2 24H6C6.31826 24 6.62348 23.8736 6.84853 23.6485C7.07357 23.4235 7.2 23.1183 7.2 22.8C7.2 22.4817 7.07357 22.1765 6.84853 21.9515C6.62348 21.7264 6.31826 21.6 6 21.6H4.0968L9.2484 16.4484C9.46699 16.2221 9.58794 15.919 9.58521 15.6043C9.58247 15.2897 9.45627 14.9887 9.23378 14.7662C9.01129 14.5437 8.71032 14.4175 8.39568 14.4148C8.08105 14.4121 7.77792 14.533 7.5516 14.7516L2.4 19.9032Z" fill="white"/>
</svg>
