<svg width="24" height="24" viewBox="0 0 24 24" fill="none" xmlns="http://www.w3.org/2000/svg">
<path d="M2.4 21.1C1.74 21.1 1.1752 20.8652 0.7056 20.3956C0.236 19.926 0.0008 19.3608 0 18.7V4.30002C0 3.64002 0.2352 3.07522 0.7056 2.60562C1.176 2.13602 1.7408 1.90082 2.4 1.90002H9.6L12 4.30002H21.6C22.26 4.30002 22.8252 4.53522 23.2956 5.00562C23.766 5.47602 24.0008 6.04082 24 6.70002V18.7C24 19.36 23.7652 19.9252 23.2956 20.3956C22.826 20.866 22.2608 21.1008 21.6 21.1H2.4ZM2.4 18.7H21.6V6.70002H11.01L8.61 4.30002H2.4V18.7Z" fill="#1BD660"/>
</svg>
