<svg width="26" height="24" viewBox="0 0 26 24" fill="none" xmlns="http://www.w3.org/2000/svg">
<path d="M22.5718 18.0456C23.39 18.0456 24.0391 17.5318 24.6228 16.8129C25.8184 15.3401 23.8559 14.1619 23.1075 13.587C22.3471 13.0012 21.4973 12.6684 20.6365 12.591M19.5456 10.4091C20.2689 10.4091 20.9626 10.1218 21.4741 9.61028C21.9856 9.09881 22.2729 8.4051 22.2729 7.68177C22.2729 6.95844 21.9856 6.26473 21.4741 5.75326C20.9626 5.24179 20.2689 4.95444 19.5456 4.95444M3.42817 18.0456C2.60998 18.0456 1.96087 17.5318 1.37722 16.8129C0.181563 15.3401 2.14415 14.1619 2.89253 13.587C3.6529 13.0012 4.50165 12.6673 5.36348 12.591M5.90895 10.4091C5.18562 10.4091 4.49191 10.1218 3.98044 9.61028C3.46897 9.09881 3.18162 8.4051 3.18162 7.68177C3.18162 6.95844 3.46897 6.26473 3.98044 5.75326C4.49191 5.24179 5.18562 4.95444 5.90895 4.95444M8.72791 14.8939C7.61298 15.5834 4.69038 16.9907 6.46969 18.7514C7.34134 19.6122 8.309 20.2275 9.52757 20.2275H16.4746C17.6932 20.2275 18.6608 19.6122 19.5303 18.7514C21.3107 16.9907 18.3881 15.5834 17.2732 14.8939C15.989 14.1019 14.5099 13.6825 13.0011 13.6825C11.4923 13.6825 10.0132 14.1019 8.72901 14.8939M16.8183 6.59084C16.8183 7.09226 16.7195 7.58877 16.5276 8.05202C16.3357 8.51528 16.0545 8.9362 15.6999 9.29076C15.3454 9.64531 14.9244 9.92657 14.4612 10.1185C13.9979 10.3103 13.5014 10.4091 13 10.4091C12.4986 10.4091 12.0021 10.3103 11.5388 10.1185C11.0756 9.92657 10.6546 9.64531 10.3001 9.29076C9.94553 8.9362 9.66428 8.51528 9.47239 8.05202C9.2805 7.58877 9.18174 7.09226 9.18174 6.59084C9.18174 5.57818 9.58402 4.60699 10.3001 3.89093C11.0161 3.17486 11.9873 2.77258 13 2.77258C14.0127 2.77258 14.9839 3.17486 15.6999 3.89093C16.416 4.60699 16.8183 5.57818 16.8183 6.59084Z" stroke="white" stroke-width="1.5" stroke-linecap="round" stroke-linejoin="round"/>
</svg>
