<svg width="26" height="26" viewBox="0 0 26 26" fill="none" xmlns="http://www.w3.org/2000/svg">
<path d="M25 23.4762V10.5238C25 10.2872 24.9458 10.0539 24.8416 9.84234C24.7375 9.63075 24.5863 9.4467 24.4 9.30476L13.9 1.30476C13.6404 1.10694 13.3246 1 13 1C12.6754 1 12.3596 1.10694 12.1 1.30476L1.6 9.30476C1.41371 9.4467 1.2625 9.63075 1.15836 9.84234C1.05422 10.0539 1 10.2872 1 10.5238V23.4762C1 23.8803 1.15804 24.2679 1.43934 24.5537C1.72064 24.8395 2.10218 25 2.5 25H8.5C8.89782 25 9.27936 24.8395 9.56066 24.5537C9.84196 24.2679 10 23.8803 10 23.4762V18.9048C10 18.5006 10.158 18.113 10.4393 17.8273C10.7206 17.5415 11.1022 17.381 11.5 17.381H14.5C14.8978 17.381 15.2794 17.5415 15.5607 17.8273C15.842 18.113 16 18.5006 16 18.9048V23.4762C16 23.8803 16.158 24.2679 16.4393 24.5537C16.7206 24.8395 17.1022 25 17.5 25H23.5C23.8978 25 24.2794 24.8395 24.5607 24.5537C24.842 24.2679 25 23.8803 25 23.4762Z" fill="white" stroke="white" stroke-width="2" stroke-linecap="round" stroke-linejoin="round"/>
</svg>
