<svg width="26" height="26" viewBox="0 0 26 26" fill="none" xmlns="http://www.w3.org/2000/svg">
<path d="M22.0742 6.99982C22.1386 6.63207 22.1218 6.25468 22.0249 5.89413C21.9279 5.53358 21.7533 5.19861 21.5132 4.91274C21.273 4.62686 20.9732 4.39701 20.6348 4.23932C20.2964 4.08162 19.9276 3.99991 19.5542 3.99991H6.44583C6.07249 3.99991 5.70366 4.08162 5.36525 4.23932C5.02684 4.39701 4.72705 4.62686 4.48691 4.91274C4.24678 5.19861 4.07213 5.53358 3.97521 5.89413C3.8783 6.25468 3.86147 6.63207 3.92591 6.99982M19.5998 3.99991C19.6334 3.68792 19.6514 3.53312 19.6514 3.40473C19.6527 2.81158 19.4343 2.23896 19.0383 1.79733C18.6424 1.35571 18.0969 1.07637 17.5071 1.0132C17.3799 1 17.2239 1 16.9119 1H9.08815C8.77616 1 8.61897 1 8.49177 1.0132C7.90199 1.07637 7.3565 1.35571 6.96052 1.79733C6.56455 2.23896 6.34614 2.81158 6.34744 3.40473C6.34744 3.53312 6.36424 3.68912 6.39904 3.99991" stroke="white" stroke-width="1.5"/>
<path d="M16.5999 20.1994H9.40014M24.0325 18.7511C23.6125 21.727 23.4025 23.2161 22.3261 24.1077C21.2498 24.9993 19.6622 24.9993 16.4859 24.9993H9.51413C6.33903 24.9993 4.75028 24.9993 3.67391 24.1077C2.59755 23.2161 2.38755 21.7282 1.96757 18.7511L1.46118 15.1512C0.924797 11.3545 0.657205 9.45734 1.79477 8.22738C2.93234 6.99982 4.95787 6.99982 9.00655 6.99982H16.9935C21.0422 6.99982 23.0677 6.99982 24.2053 8.22858C25.1041 9.19935 25.1257 10.5877 24.8305 12.9996" stroke="white" stroke-width="1.5" stroke-linecap="round"/>
</svg>
