<svg width="24" height="24" viewBox="0 0 24 24" fill="none" xmlns="http://www.w3.org/2000/svg">
<path d="M11.8339 0C9.79131 0 7.8324 0.811403 6.3881 2.25571C4.94379 3.70002 4.13239 5.65892 4.13239 7.70148V11.583C4.13255 11.7537 4.093 11.9221 4.01687 12.0748L2.1278 15.8518C2.03552 16.0364 1.99195 16.2414 2.00122 16.4475C2.01049 16.6536 2.0723 16.8539 2.18077 17.0294C2.28925 17.2049 2.44078 17.3498 2.62099 17.4502C2.8012 17.5507 3.0041 17.6034 3.21041 17.6034H20.4573C20.6636 17.6034 20.8665 17.5507 21.0467 17.4502C21.2269 17.3498 21.3785 17.2049 21.487 17.0294C21.5954 16.8539 21.6572 16.6536 21.6665 16.4475C21.6758 16.2414 21.6322 16.0364 21.5399 15.8518L19.652 12.0748C19.5755 11.9222 19.5355 11.7538 19.5353 11.583V7.70148C19.5353 5.65892 18.7239 3.70002 17.2796 2.25571C15.8353 0.811403 13.8764 0 11.8339 0ZM11.8339 20.904C11.151 20.9044 10.4849 20.6929 9.92722 20.2988C9.36957 19.9047 8.94788 19.3474 8.72027 18.7036H14.9475C14.7198 19.3474 14.2982 19.9047 13.7405 20.2988C13.1829 20.6929 12.5167 20.9044 11.8339 20.904Z" fill="white"/>
</svg>
