<svg width="24" height="24" viewBox="0 0 24 24" fill="none" xmlns="http://www.w3.org/2000/svg">
<path d="M5.33333 11.5C5.33333 12.2072 5.05238 12.8855 4.55229 13.3856C4.05219 13.8857 3.37391 14.1666 2.66667 14.1666C1.95942 14.1666 1.28115 13.8857 0.781048 13.3856C0.280951 12.8855 0 12.2072 0 11.5C0 10.7927 0.280951 10.1145 0.781048 9.61436C1.28115 9.11427 1.95942 8.83331 2.66667 8.83331C3.37391 8.83331 4.05219 9.11427 4.55229 9.61436C5.05238 10.1145 5.33333 10.7927 5.33333 11.5ZM14.6667 11.5C14.6667 12.2072 14.3857 12.8855 13.8856 13.3856C13.3855 13.8857 12.7072 14.1666 12 14.1666C11.2928 14.1666 10.6145 13.8857 10.1144 13.3856C9.61429 12.8855 9.33333 12.2072 9.33333 11.5C9.33333 10.7927 9.61429 10.1145 10.1144 9.61436C10.6145 9.11427 11.2928 8.83331 12 8.83331C12.7072 8.83331 13.3855 9.11427 13.8856 9.61436C14.3857 10.1145 14.6667 10.7927 14.6667 11.5ZM24 11.5C24 12.2072 23.719 12.8855 23.219 13.3856C22.7189 13.8857 22.0406 14.1666 21.3333 14.1666C20.6261 14.1666 19.9478 13.8857 19.4477 13.3856C18.9476 12.8855 18.6667 12.2072 18.6667 11.5C18.6667 10.7927 18.9476 10.1145 19.4477 9.61436C19.9478 9.11427 20.6261 8.83331 21.3333 8.83331C22.0406 8.83331 22.7189 9.11427 23.219 9.61436C23.719 10.1145 24 10.7927 24 11.5Z" fill="white"/>
</svg>
