<svg width="24" height="23" viewBox="0 0 24 23" fill="none" xmlns="http://www.w3.org/2000/svg">
<g clip-path="url(#clip0_116_695)">
<path d="M12.237 0.331009C6.19898 0.0910095 1.10998 4.79101 0.870978 10.829C0.630978 16.867 5.33198 21.955 11.369 22.195C17.407 22.435 22.495 17.735 22.735 11.697C22.974 5.65901 18.274 0.570009 12.237 0.331009ZM16.855 16.359C16.719 16.599 16.454 16.719 16.196 16.683C16.117 16.672 16.038 16.646 15.964 16.604C14.518 15.781 12.942 15.245 11.28 15.011C9.61798 14.777 7.95498 14.858 6.33798 15.251C5.98698 15.336 5.63398 15.121 5.54898 14.77C5.46398 14.419 5.67898 14.066 6.02998 13.981C7.80798 13.549 9.63598 13.46 11.462 13.717C13.288 13.974 15.02 14.563 16.611 15.468C16.924 15.647 17.034 16.045 16.856 16.359H16.855ZM18.293 13.487C18.07 13.899 17.554 14.053 17.142 13.83C15.45 12.915 13.618 12.314 11.697 12.044C9.77598 11.774 7.84998 11.847 5.97098 12.26C5.86898 12.282 5.76798 12.286 5.66998 12.272C5.32898 12.224 5.03698 11.97 4.95898 11.613C4.85798 11.155 5.14798 10.702 5.60598 10.601C7.68298 10.144 9.81198 10.063 11.934 10.361C14.055 10.659 16.08 11.323 17.95 12.335C18.363 12.558 18.516 13.073 18.293 13.486V13.487ZM19.887 10.249C19.677 10.653 19.24 10.862 18.814 10.802C18.699 10.786 18.586 10.75 18.477 10.694C16.507 9.66901 14.385 8.99201 12.17 8.68101C9.95498 8.37001 7.72798 8.43601 5.55198 8.87801C4.98598 8.99301 4.43498 8.62701 4.31998 8.06201C4.20498 7.49601 4.57098 6.94501 5.13598 6.83001C7.54598 6.34101 10.01 6.26801 12.461 6.61201C14.912 6.95601 17.26 7.70601 19.442 8.84101C19.954 9.10701 20.153 9.73801 19.887 10.25V10.249Z" fill="#0BB06C"/>
</g>
<defs>
<clipPath id="clip0_116_695">
<rect width="23.605" height="22.525" fill="white"/>
</clipPath>
</defs>
</svg>
