<svg width="26" height="26" viewBox="0 0 26 26" fill="none" xmlns="http://www.w3.org/2000/svg">
<path d="M1 13.5H25M1 18.9545H25M1 24.4091H25M3.72727 2.59088H22.2727C22.996 2.59088 23.6897 2.87822 24.2012 3.38968C24.7127 3.90114 25 4.59484 25 5.31815C25 6.04147 24.7127 6.73516 24.2012 7.24663C23.6897 7.75809 22.996 8.04543 22.2727 8.04543H3.72727C3.00396 8.04543 2.31026 7.75809 1.7988 7.24663C1.28734 6.73516 1 6.04147 1 5.31815C1 4.59484 1.28734 3.90114 1.7988 3.38968C2.31026 2.87822 3.00396 2.59088 3.72727 2.59088Z" stroke="white" stroke-width="1.5" stroke-linecap="round" stroke-linejoin="round"/>
</svg>
