<svg width="24" height="24" viewBox="0 0 24 24" fill="none" xmlns="http://www.w3.org/2000/svg">
<path fill-rule="evenodd" clip-rule="evenodd" d="M1.7561 15.5976C2.22184 15.5976 2.66851 15.7826 2.99785 16.1119C3.32718 16.4413 3.51219 16.8879 3.51219 17.3537C3.51219 17.8194 3.32718 18.2661 2.99785 18.5954C2.66851 18.9248 2.22184 19.1098 1.7561 19.1098C1.29035 19.1098 0.843681 18.9248 0.514349 18.5954C0.185017 18.2661 0 17.8194 0 17.3537C0 16.8879 0.185017 16.4413 0.514349 16.1119C0.843681 15.7826 1.29035 15.5976 1.7561 15.5976ZM22.8281 16.1829C23.4755 16.1829 24 16.7027 24 17.3537C24 18.0005 23.479 18.5244 22.8281 18.5244H6.4402C6.28627 18.5249 6.13377 18.4949 5.99145 18.4363C5.84914 18.3776 5.71981 18.2914 5.61092 18.1826C5.50202 18.0738 5.41569 17.9446 5.35689 17.8023C5.29809 17.6601 5.26798 17.5076 5.26829 17.3537C5.26829 16.7068 5.78927 16.1829 6.4402 16.1829H22.8281ZM1.7561 9.74392C2.22184 9.74392 2.66851 9.92893 2.99785 10.2583C3.32718 10.5876 3.51219 11.0343 3.51219 11.5C3.51219 11.9658 3.32718 12.4124 2.99785 12.7418C2.66851 13.0711 2.22184 13.2561 1.7561 13.2561C1.29035 13.2561 0.843681 13.0711 0.514349 12.7418C0.185017 12.4124 0 11.9658 0 11.5C0 11.0343 0.185017 10.5876 0.514349 10.2583C0.843681 9.92893 1.29035 9.74392 1.7561 9.74392ZM22.8281 10.3293C23.4755 10.3293 24 10.8491 24 11.5C24 12.1468 23.479 12.6707 22.8281 12.6707H6.4402C6.28627 12.6712 6.13377 12.6413 5.99145 12.5826C5.84914 12.5239 5.71981 12.4377 5.61092 12.329C5.50202 12.2202 5.41569 12.0909 5.35689 11.9487C5.29809 11.8064 5.26798 11.6539 5.26829 11.5C5.26829 10.8532 5.78927 10.3293 6.4402 10.3293H22.8281ZM1.7561 3.89026C2.22184 3.89026 2.66851 4.07528 2.99785 4.40461C3.32718 4.73394 3.51219 5.18061 3.51219 5.64636C3.51219 6.1121 3.32718 6.55877 2.99785 6.88811C2.66851 7.21744 2.22184 7.40245 1.7561 7.40245C1.29035 7.40245 0.843681 7.21744 0.514349 6.88811C0.185017 6.55877 0 6.1121 0 5.64636C0 5.18061 0.185017 4.73394 0.514349 4.40461C0.843681 4.07528 1.29035 3.89026 1.7561 3.89026ZM22.8281 4.47562C23.4755 4.47562 24 4.99543 24 5.64636C24 6.29319 23.479 6.81709 22.8281 6.81709H6.4402C6.28627 6.81755 6.13377 6.78759 5.99145 6.72894C5.84914 6.67028 5.71981 6.58408 5.61092 6.47529C5.50202 6.3665 5.41569 6.23727 5.35689 6.09501C5.29809 5.95276 5.26798 5.80028 5.26829 5.64636C5.26829 4.99953 5.78927 4.47562 6.4402 4.47562H22.8281Z" fill="white"/>
</svg>
