<svg width="24" height="24" viewBox="0 0 24 24" fill="none" xmlns="http://www.w3.org/2000/svg">
<path fill-rule="evenodd" clip-rule="evenodd" d="M13.8114 4.66412C13.5054 2.905 11.4931 2.18624 10.1119 3.16419L7.12767 5.28089C6.92511 5.42386 6.68323 5.50057 6.4353 5.50048H3.59983C2.6451 5.50048 1.72947 5.87975 1.05437 6.55485C0.379267 7.22995 0 8.14558 0 9.10032V13.9001C0 14.8548 0.379267 15.7705 1.05437 16.4456C1.72947 17.1207 2.6451 17.4999 3.59983 17.4999H6.4353C6.68377 17.4999 6.92612 17.5771 7.12887 17.7207L10.1119 19.835C11.4919 20.8142 13.5054 20.0954 13.8114 18.3351C14.1977 16.1152 14.3993 13.8305 14.3993 11.5002C14.3993 9.16991 14.1977 6.88642 13.8114 4.66412ZM23.7565 6.58163C23.7211 6.26812 23.5637 5.98115 23.3183 5.78286C23.0729 5.58456 22.7593 5.49089 22.4453 5.52213C22.1314 5.55337 21.8423 5.707 21.6408 5.94976C21.4393 6.19252 21.3415 6.50488 21.3686 6.81922C21.6776 9.93223 21.6776 13.0682 21.3686 16.1812C21.3508 16.3391 21.3645 16.499 21.409 16.6515C21.4535 16.8041 21.5278 16.9463 21.6277 17.0699C21.7275 17.1935 21.851 17.296 21.9908 17.3716C22.1306 17.4471 22.2841 17.494 22.4422 17.5098C22.6003 17.5255 22.76 17.5097 22.912 17.4632C23.0639 17.4167 23.2051 17.3405 23.3274 17.239C23.4497 17.1375 23.5506 17.0128 23.6242 16.8719C23.6979 16.7311 23.7429 16.5771 23.7565 16.4188C24.0812 13.1478 24.0812 9.85264 23.7565 6.58163ZM19.0467 7.80198C19.0362 7.6431 18.9942 7.4879 18.9232 7.34542C18.8521 7.20294 18.7534 7.07602 18.6328 6.97206C18.5122 6.86811 18.3721 6.7892 18.2207 6.73992C18.0693 6.69064 17.9096 6.67199 17.751 6.68505C17.5923 6.6981 17.4378 6.74261 17.2965 6.81597C17.1552 6.88934 17.0299 6.99009 16.9279 7.11236C16.8259 7.23463 16.7493 7.37598 16.7025 7.52816C16.6557 7.68034 16.6396 7.84032 16.6552 7.99877C16.8474 10.3291 16.8474 12.6713 16.6552 15.0016C16.6345 15.3158 16.7381 15.6256 16.9437 15.8641C17.1493 16.1026 17.4404 16.2507 17.7542 16.2765C18.068 16.3023 18.3794 16.2038 18.6212 16.0021C18.863 15.8004 19.0158 15.5118 19.0467 15.1984C19.2497 12.7371 19.2497 10.2633 19.0467 7.80198Z" fill="white"/>
</svg>
