<svg width="24" height="24" viewBox="0 0 24 24" fill="none" xmlns="http://www.w3.org/2000/svg">
<path fill-rule="evenodd" clip-rule="evenodd" d="M13.51 6.30298C13.255 4.83698 11.578 4.23798 10.427 5.05298L7.94 6.81698C7.77119 6.93612 7.56962 7.00005 7.363 6.99998H5C4.20435 6.99998 3.44129 7.31605 2.87868 7.87866C2.31607 8.44127 2 9.20433 2 9.99998V14C2 14.7956 2.31607 15.5587 2.87868 16.1213C3.44129 16.6839 4.20435 17 5 17H7.363C7.57007 17 7.77203 17.0643 7.941 17.184L10.427 18.946C11.577 19.762 13.255 19.163 13.51 17.696C13.832 15.846 14 13.942 14 12C14 10.058 13.832 8.15498 13.51 6.30298ZM21.798 7.90098C21.7685 7.63971 21.6373 7.40056 21.4328 7.2353C21.2283 7.07005 20.9669 6.99199 20.7053 7.01802C20.4437 7.04405 20.2028 7.17208 20.0349 7.37439C19.8669 7.57671 19.7854 7.83702 19.808 8.09898C20.0655 10.6933 20.0655 13.3067 19.808 15.901C19.7932 16.0326 19.8046 16.1658 19.8417 16.293C19.8787 16.4201 19.9407 16.5386 20.0239 16.6416C20.1071 16.7446 20.21 16.8301 20.3265 16.893C20.443 16.9559 20.5709 16.9951 20.7027 17.0082C20.8345 17.0213 20.9675 17.0081 21.0942 16.9694C21.2208 16.9306 21.3385 16.8671 21.4404 16.7826C21.5423 16.698 21.6264 16.594 21.6878 16.4766C21.7492 16.3593 21.7866 16.2309 21.798 16.099C22.0686 13.373 22.0686 10.6269 21.798 7.90098ZM17.873 8.91798C17.8643 8.78558 17.8293 8.65624 17.7701 8.5375C17.7108 8.41876 17.6286 8.31299 17.5281 8.22636C17.4276 8.13972 17.3108 8.07396 17.1847 8.03289C17.0585 7.99183 16.9254 7.97628 16.7932 7.98716C16.6609 7.99804 16.5322 8.03514 16.4144 8.09627C16.2966 8.15741 16.1922 8.24138 16.1072 8.34328C16.0222 8.44517 15.9584 8.56296 15.9194 8.68979C15.8804 8.81661 15.867 8.94993 15.88 9.08198C16.0402 11.024 16.0402 12.9759 15.88 14.918C15.8627 15.1798 15.9491 15.4379 16.1204 15.6367C16.2917 15.8355 16.5343 15.9589 16.7958 15.9804C17.0573 16.0019 17.3168 15.9198 17.5184 15.7517C17.7199 15.5837 17.8472 15.3431 17.873 15.082C18.0422 13.0308 18.0422 10.9692 17.873 8.91798Z" fill="white"/>
</svg>
